# xmcd
#
# Track frame offsets:
#	150
#	14257
#	26386
#	39258
#	49675
#	63728
#	76164
#	87628
#	101019
#	113870
#	125664
#	138802
#	153067
#	166902
#	177531
#	205576
#	215699
#	223432
#	236568
#	247517
#	259316
#	272153
#	284237
#	295119
#	306652
#	320231
#	331826
#
# Disc length: 4616 seconds
#
# Revision: 0
# Processed by: cddbd v1.5.2PL0 Copyright (c) Steve Scherf et al.
# Submitted via: dBpowerAMP V4.0
#
DISCID=9812061b
DTITLE=Various Artist - Bob Geddins Big town records story Cd1
DYEAR=1900
DGENRE=Blues
TTITLE0=Jimmy  Wilson  and his Band - Tin pan alley
TTITLE1=Jimmy  Wilson  and his Band - Big town jump
TTITLE2=Gospel Consoltaotrs - Sending up my timber
TTITLE3=Gospel Consoltaotrs - There is a God in heaven
TTITLE4=Thrillers - The Drunkard
TTITLE5=Thrillers - Mattie leave me alone
TTITLE6=Loving five gospel Singers - Babtism of Christ
TTITLE7=Loving five Gospel Singers - Something happened to me one day
TTITLE8=Four Aces - Release me
TTITLE9=Four aces - Whose arms are you missing
TTITLE10=Southern Travellers - Peace in the land
TTITLE11=Southern Travellers - He's my guiding light
TTITLE12=Little Caesar - Big eyes
TTITLE13=Little Caesar - Can't stand it all alone
TTITLE14=Rev. Landers - Apostle Paul (parts 1 and 2)
TTITLE15=Ontarios with Frank Motley and his Motley Crew - Memories of you
TTITLE16=Ontarios with Frank Motley and his Motley Crew - Lovers Mambo
TTITLE17=Rising Star Gospel Singers - What about me
TTITLE18=Rising Star Gospel Singers - Brother noah
TTITLE19=Fats GAines and Rose Johnson - He's a real fine man
TTITLE20=Fats Gaines and his bande - Home work blues
TTITLE21=Tommy Jenkins - I want to rest
TTITLE22=Tommy Jenkins - He knows how muhc we can bear
TTITLE23=Jimmy Wilson and Que Martin and His band - Mountain climber
TTITLE24=Jimmy Wilson and Que Martin and His band - Terdrops on my pillow
TTITLE25=A.B. Strong - Bread of heaven
TTITLE26=A.B. Strong - Jesus I love you
EXTD=
EXTT0=
EXTT1=
EXTT2=
EXTT3=
EXTT4=
EXTT5=
EXTT6=
EXTT7=
EXTT8=
EXTT9=
EXTT10=
EXTT11=
EXTT12=
EXTT13=
EXTT14=
EXTT15=
EXTT16=
EXTT17=
EXTT18=
EXTT19=
EXTT20=
EXTT21=
EXTT22=
EXTT23=
EXTT24=
EXTT25=
EXTT26=
PLAYORDER=
